<?xml version="1.0" encoding="UTF-8"?>
<!DOCTYPE svg PUBLIC "-//W3C//DTD SVG 1.1//EN" "http://www.w3.org/Graphics/SVG/1.1/DTD/svg11.dtd">
<!-- Creator: CorelDRAW 2021.5 (Evaluation Version) -->
<svg xmlns="http://www.w3.org/2000/svg" xml:space="preserve" width="133.571mm" height="93.4099mm" version="1.1" style="shape-rendering:geometricPrecision; text-rendering:geometricPrecision; image-rendering:optimizeQuality; fill-rule:evenodd; clip-rule:evenodd"
viewBox="0 0 719.94 503.47"
 xmlns:xlink="http://www.w3.org/1999/xlink"
 xmlns:xodm="http://www.corel.com/coreldraw/odm/2003">
 <defs>
  <style type="text/css">
   <![CDATA[
    .fil1 {fill:fuchsia}
    .fil0 {fill:fuchsia;fill-rule:nonzero}
   ]]>
  </style>
 </defs>
 <g id="Layer_x0020_1">
  <metadata id="CorelCorpID_0Corel-Layer"/>
  <g id="_2485289634832">
   <path class="fil0" d="M31.79 395.33l0.66 -66.19c0,-51.77 -2.51,-81.05 -7.54,-87.82 -2.4,-3.06 -3.6,-5.19 -3.6,-6.39 0,-1.2 1.47,-2.62 4.42,-4.26 2.95,-1.64 8.68,-3.44 17.2,-5.41 8.52,-1.97 16.06,-2.95 22.61,-2.95 6.55,0 9.83,1.53 9.83,4.59l-0.66 4.26c-2.62,23.59 -3.93,46.64 -3.93,69.14 0,22.5 0.66,47.62 1.97,75.37 1.31,27.74 1.97,48.17 1.97,61.28 0,17.7 -6.83,32.93 -20.48,45.71 -13.65,12.78 -29.87,19.72 -48.66,20.81 -3.71,-0.44 -5.57,-1.75 -5.57,-3.93 0,-1.53 0.49,-2.73 1.47,-3.6 0.98,-0.87 2.13,-1.97 3.44,-3.28 1.31,-1.31 3.71,-4.7 7.21,-10.16 3.5,-5.46 6.55,-11.63 9.18,-18.51 2.62,-6.88 5.02,-16.44 7.21,-28.67 2.18,-12.23 3.28,-25.56 3.28,-39.98z"/>
   <path class="fil0" d="M130.09 332.42c-5.68,0.22 -9.78,0.38 -12.29,0.49 -2.51,0.11 -3.77,-0.49 -3.77,-1.8 0,-1.31 0.66,-2.62 1.97,-3.93 13.98,-12.89 37.58,-19.33 70.78,-19.33 11.36,0 20.32,0.98 26.87,2.95l3.28 0.98c2.62,1.09 3.93,2.29 3.93,3.6 0,1.09 -0.76,1.97 -2.29,2.62 -5.9,1.75 -11.58,4.53 -17.04,8.36 -5.46,3.82 -8.19,6.5 -8.19,8.03l1.97 2.29c6.99,3.93 12.4,10.16 16.22,18.68 3.82,8.52 5.95,16.06 6.39,22.61l0.65 10.16c0,21.63 -6.01,39.43 -18.02,53.41 -12.02,13.98 -28.4,20.97 -49.15,20.97 -10.49,0 -19.55,-1.86 -27.2,-5.57 -7.65,-3.71 -13.27,-7.92 -16.88,-12.62 -3.6,-4.7 -6.5,-9.99 -8.68,-15.89 -2.62,-8.08 -3.93,-16.44 -3.93,-25.07 0,-8.63 1.47,-17.31 4.42,-26.05 2.95,-8.74 6.34,-15.18 10.16,-19.33 3.82,-4.15 8.14,-7.54 12.94,-10.16 6.12,-3.28 11.03,-4.92 14.75,-4.92 3.71,0 5.57,0.76 5.57,2.29l-1.97 3.28c-4.81,5.68 -8.25,13.11 -10.32,22.28 -2.08,9.18 -3.11,17.31 -3.11,24.41 0,7.1 0.87,14.15 2.62,21.14 1.75,6.99 3.71,12.18 5.9,15.57 2.18,3.39 4.7,5.95 7.54,7.7 4.15,2.62 8.52,3.93 13.11,3.93 4.59,0 9.07,-1.8 13.44,-5.41 4.37,-3.6 7.54,-8.36 9.5,-14.25 3.93,-10.92 5.9,-22.17 5.9,-33.75 0,-18.35 -4.64,-32.55 -13.93,-42.6 -9.28,-10.05 -22.99,-15.07 -41.12,-15.07z"/>
   <path class="fil0" d="M266.74 372.72l0.33 8.19c0,1.31 0.87,1.97 2.62,1.97 6.99,-0.66 13.11,-2.46 18.35,-5.41 5.24,-2.95 9.18,-6.28 11.8,-9.99 5.24,-8.08 8.08,-15.07 8.52,-20.97l0.33 -3.93c0,-11.8 -4.7,-17.7 -14.09,-17.7 -6.99,0 -12.67,3.06 -17.04,9.18 -7.21,9.61 -10.81,22.5 -10.81,38.67zm71.44 43.58c0,8.3 -1.69,15.57 -5.08,21.79 -3.39,6.23 -7.21,10.81 -11.47,13.76 -4.26,2.95 -9.23,5.3 -14.91,7.05 -7.21,2.18 -14.09,3.28 -20.64,3.28 -18.35,0 -31.9,-6.88 -40.63,-20.64 -8.74,-13.76 -13.11,-31.29 -13.11,-52.59 0,-21.3 5.41,-40.25 16.22,-56.85 10.81,-16.6 27.03,-24.9 48.66,-24.9 19.66,0 32.99,6.88 39.98,20.64 2.84,5.24 4.26,10.21 4.26,14.91 0,4.7 -0.22,8.41 -0.66,11.14 -0.44,2.73 -1.97,6.83 -4.59,12.29 -2.62,5.46 -6.12,10.38 -10.49,14.75 -4.37,4.37 -11.25,8.52 -20.64,12.45 -9.39,3.93 -20.43,6.55 -33.1,7.86 -1.75,0 -2.62,0.76 -2.62,2.29 0,1.97 0.71,4.86 2.13,8.68 1.42,3.82 3,7.05 4.75,9.67 4.81,6.12 11.91,9.18 21.3,9.18 9.39,0 17.37,-3.06 23.92,-9.18 3.5,-3.28 6.34,-7.32 8.52,-12.12 0.87,-1.75 2.02,-2.62 3.44,-2.62 1.42,0 2.57,1.2 3.44,3.6 0.87,2.4 1.31,4.26 1.31,5.57z"/>
   <path class="fil0" d="M423.8 243.91c-3.99,0 -7.42,0.66 -10.3,1.99 -2.88,1.33 -4.32,2.99 -4.32,4.98 -2.66,9.3 -3.99,37.03 -3.99,83.19 0,46.16 -0.11,72.01 -0.33,77.55 4.21,6.64 10.74,9.96 19.59,9.96 15.72,0 27.57,-8.69 35.54,-26.07 7.97,-17.38 11.96,-39.19 11.96,-65.43 0,-26.24 -3.87,-47.16 -11.62,-62.77 -7.75,-15.61 -19.93,-23.41 -36.53,-23.41zm-63.43 218.86c-3.32,-0.44 -4.98,-1.44 -4.98,-2.99l1 -3.99c5.53,-11.96 8.3,-55.02 8.3,-129.19 0,-35.42 -0.94,-57.56 -2.82,-66.42 -1.88,-8.86 -3.38,-14.5 -4.48,-16.94l-1.66 -3.32c-0.89,-0.89 -1.33,-2.16 -1.33,-3.82 0,-1.66 1.33,-3.04 3.99,-4.15 17.27,-6.86 39.96,-10.3 68.08,-10.3 59.12,0 88.67,37.64 88.67,112.92 0,29.45 -5.2,56.35 -15.61,80.7 -4.21,9.3 -9.08,17.32 -14.61,24.08 -5.54,6.75 -12.79,12.4 -21.75,16.94 -8.97,4.54 -18.87,6.81 -29.72,6.81 -2.21,-0.22 -5.04,-0.55 -8.47,-1 -3.43,-0.44 -8.52,-2.1 -15.28,-4.98 -6.75,-2.88 -11.35,-6.64 -13.78,-11.29 -8.19,11.29 -20.04,16.94 -35.54,16.94z"/>
   <path class="fil0" d="M639.87 358.59l-0.67 42.74c0,29.6 3.23,47.41 9.68,53.42 0.89,0.89 1.34,1.89 1.34,3.01 0,3.34 -7.18,5.01 -21.54,5.01 -14.36,0 -21.98,-4.23 -22.87,-12.69 -0.22,-2 -0.33,-6.12 -0.33,-12.35l1.34 -53.42c0,-1.56 -0.89,-2.34 -2.67,-2.34 -10.68,0 -20.7,3 -30.05,9.02 -9.35,6.01 -14.02,13.69 -14.02,23.04 0,4.9 1.34,9.01 4.01,12.35 2.67,3.34 5.95,5.01 9.85,5.01 3.9,0 7.12,-0.78 9.68,-2.34 2.56,-1.56 4.06,-2.45 4.51,-2.67 3.78,0.45 5.68,4.4 5.68,11.85 0,7.46 -3.45,13.47 -10.35,18.03 -6.9,4.56 -14.13,6.84 -21.7,6.84 -7.57,0 -14.08,-1.34 -19.53,-4.01 -5.45,-2.67 -9.4,-5.68 -11.85,-9.01 -2.45,-3.34 -4.45,-7.12 -6.01,-11.35 -1.56,-5.12 -2.34,-9.57 -2.34,-13.36 0,-15.58 4.9,-28.05 14.69,-37.4 9.79,-9.35 22.37,-16.03 37.73,-20.03 20.26,-4.01 30.83,-7.68 31.72,-11.02 0.67,-2.45 1,-6.57 1,-12.35 0,-11.8 -6.01,-17.7 -18.03,-17.7 -5.12,0 -9.68,1.61 -13.69,4.84 -4.01,3.23 -6.01,7.29 -6.01,12.19l2 8.01c-0.45,3.78 -4.45,6.01 -12.02,6.68l-3.67 0.33c-6.68,0 -11.96,-1.67 -15.86,-5.01 -3.9,-3.34 -5.84,-7.79 -5.84,-13.36 0,-3.56 1.17,-7.51 3.51,-11.85 2.34,-4.34 5.29,-7.85 8.85,-10.52 3.56,-2.67 9.07,-5.06 16.53,-7.18 7.46,-2.11 14.64,-3.17 21.54,-3.17 6.9,0 12.24,0.22 16.03,0.67 3.78,0.45 8.96,1.5 15.53,3.17 6.57,1.67 12.02,4.84 16.36,9.52 4.34,4.67 6.68,9.63 7.01,14.86 0.33,5.23 0.5,12.74 0.5,22.54z"/>
   <path class="fil0" d="M663.49 357.52l0.76 -10.08c0.17,-1.51 1.34,-2.27 3.53,-2.27l8.82 0 -1.01 -20.16 0 -1.01c0,-3.86 2.94,-7.56 8.82,-11.09 5.88,-3.53 11.26,-5.29 16.13,-5.29 1.51,0 2.27,0.67 2.27,2.02l0 0.25c-0.67,4.54 -1.34,16.21 -2.02,35.03 7.39,0 12.1,-0.17 14.11,-0.5 2.02,-0.34 3.11,-0.5 3.28,-0.5 1.18,0 1.76,1.01 1.76,3.02 0,2.02 -0.92,4.58 -2.77,7.69 -1.85,3.11 -3.86,4.75 -6.05,4.91l-10.58 0c-0.17,5.71 -0.25,15.33 -0.25,28.85 0,13.52 0.13,24.65 0.38,33.39 0.25,8.74 0.55,15.33 0.88,19.78 0.34,4.45 0.71,8.02 1.13,10.71 0.42,2.69 0.76,4.62 1.01,5.8 0.25,1.18 0.38,1.93 0.38,2.27 0,1.68 -1.09,2.6 -3.28,2.77 -6.55,0 -13.06,-0.92 -19.53,-2.77 -6.47,-1.85 -9.7,-5.04 -9.7,-9.58 3.53,-28.22 5.29,-58.55 5.29,-90.97 -4.54,0 -7.98,0.17 -10.33,0.5l-0.25 0c-1.51,0 -2.44,-0.92 -2.77,-2.77z"/>
   <path class="fil1" d="M287.7 73.2l0 139.03 3.69 0c38.23,0 69.51,-31.28 69.51,-69.51 0,-38.23 -31.28,-69.51 -69.51,-69.51l-3.69 0z"/>
   <path class="fil1" d="M148.67 73.2l139.03 0 0 -3.69c0,-38.23 -31.28,-69.51 -69.51,-69.51 -38.23,0 -69.51,31.28 -69.51,69.51l0 3.69z"/>
   <path class="fil1" d="M127.82 34.75c9.17,0 16.61,7.71 16.61,17.23 0,9.51 -7.44,17.23 -16.61,17.23 -9.17,0 -16.61,-7.71 -16.61,-17.23 0,-9.51 7.44,-17.23 16.61,-17.23z"/>
   <path class="fil1" d="M307.86 35.42c9.17,0 16.61,7.71 16.61,17.23 0,9.51 -7.44,17.23 -16.61,17.23 -9.17,0 -16.61,-7.71 -16.61,-17.23 0,-9.51 7.44,-17.23 16.61,-17.23z"/>
   <path class="fil1" d="M307.58 216.06c9.17,0 16.61,7.71 16.61,17.22 0,9.51 -7.44,17.23 -16.61,17.23 -9.17,0 -16.61,-7.71 -16.61,-17.23 0,-9.51 7.44,-17.22 16.61,-17.22z"/>
   <path class="fil1" d="M127.38 215.6c9.17,0 16.61,7.71 16.61,17.23 0,9.51 -7.44,17.23 -16.61,17.23 -9.17,0 -16.61,-7.71 -16.61,-17.23 0,-9.51 7.44,-17.23 16.61,-17.23z"/>
   <path class="fil1" d="M148.67 212.23l0 -139.03 -3.69 0c-38.23,0 -69.51,31.28 -69.51,69.51 0,38.23 31.28,69.51 69.51,69.51l3.69 0z"/>
   <path class="fil1" d="M287.7 212.23l-139.03 0 0 3.69c0,38.23 31.28,69.51 69.51,69.51 38.23,0 69.51,-31.28 69.51,-69.51l0 -3.69z"/>
  </g>
 </g>
</svg>
